<svg width="4" height="14" viewBox="0 0 4 14" fill="none" xmlns="http://www.w3.org/2000/svg">
<path d="M1.74999 7.49999C2.16421 7.49999 2.49999 7.16421 2.49999 6.74999C2.49999 6.33578 2.16421 5.99999 1.74999 5.99999C1.33578 5.99999 0.999992 6.33578 0.999992 6.74999C0.999992 7.16421 1.33578 7.49999 1.74999 7.49999Z" stroke="#888888" stroke-width="1.5" stroke-linecap="round" stroke-linejoin="round"/>
<path d="M1.75 2.5C2.16421 2.5 2.5 2.16421 2.5 1.75C2.5 1.33579 2.16421 1 1.75 1C1.33578 1 0.999995 1.33579 0.999995 1.75C0.999995 2.16421 1.33578 2.5 1.75 2.5Z" stroke="#888888" stroke-width="1.5" stroke-linecap="round" stroke-linejoin="round"/>
<path d="M1.75 13C2.16421 13 2.5 12.6642 2.5 12.25C2.5 11.8358 2.16421 11.5 1.75 11.5C1.33578 11.5 0.999995 11.8358 0.999995 12.25C0.999995 12.6642 1.33578 13 1.75 13Z" stroke="#888888" stroke-width="1.5" stroke-linecap="round" stroke-linejoin="round"/>
</svg>
